<?xml version="1.0" standalone="no"?><!DOCTYPE svg PUBLIC "-//W3C//DTD SVG 1.1//EN" "http://www.w3.org/Graphics/SVG/1.1/DTD/svg11.dtd"><svg t="1650531653888" class="icon" viewBox="0 0 1095 1024" version="1.1" xmlns="http://www.w3.org/2000/svg" p-id="59481" xmlns:xlink="http://www.w3.org/1999/xlink" width="213.8671875" height="200"><defs><style type="text/css">@font-face { font-family: feedback-iconfont; src: url("//at.alicdn.com/t/font_1031158_u69w8yhxdu.woff2?t=1630033759944") format("woff2"), url("//at.alicdn.com/t/font_1031158_u69w8yhxdu.woff?t=1630033759944") format("woff"), url("//at.alicdn.com/t/font_1031158_u69w8yhxdu.ttf?t=1630033759944") format("truetype"); }
</style></defs><path d="M973.41946 276.025729h-252.210053l4.025184 295.498213h248.184869c43.336079 0 78.800395-35.45996 78.800395-78.800394V354.83048c0-43.340435-35.464316-78.804751-78.800395-78.804751z m-851.056461-0.004356C79.022564 276.021373 43.562604 311.485689 43.562604 354.826124v137.90178c0 43.336079 35.45996 78.800395 78.800395 78.800395h256.300582l-8.377089-295.506926H122.362999z" fill="#C4FBFF" p-id="59482"></path><path d="M721.213763 291.272641h252.210053c35.041759 0 63.553483 28.511724 63.553484 63.557839v137.893068c0 35.041759-28.511724 63.553483-63.553484 63.553483h-248.189225a15.246911 15.246911 0 1 0 0 30.493823h248.189225c51.856924 0 94.047306-42.194738 94.047307-94.047306V354.83048c0-51.86128-42.190382-94.051663-94.047307-94.051662h-252.210053a15.246911 15.246911 0 1 0 0 30.493823zM378.663581 556.281387H122.362999c-35.041759 0-63.553483-28.511724-63.553483-63.553483V354.826124c0-16.889222 6.634585-32.824422 18.684001-44.873839 12.049416-12.053773 27.980261-18.684001 44.869482-18.684001h247.923493a15.246911 15.246911 0 1 0 0-30.493823H122.362999c-25.035429 0-48.628935 9.805942-66.432971 27.614335C38.121635 306.197189 28.315693 329.790695 28.315693 354.826124v137.90178c0 51.852568 42.190382 94.047306 94.047306 94.047306h256.300582a15.246911 15.246911 0 1 0 0-30.493823zM526.109928 47.918865h30.493822v102.598645h-30.493822z" fill="#6E6E96" p-id="59483"></path><path d="M376.995133 32.671953h332.434946v30.493823H376.995133zM196.210326 276.025729h30.493823v295.50257h-30.493823zM862.71817 276.025729h30.493823v295.50257h-30.493823z" fill="#6E6E96" p-id="59484"></path><path d="M456.401048 942.463874H260.521798v-105.926829l139.317565-74.056427" fill="#C4FBFF" p-id="59485"></path><path d="M456.401048 927.216962H260.521798a15.246911 15.246911 0 0 1 15.246912 15.246912v-105.926829a15.251268 15.251268 0 0 1-8.089576 13.465201l139.317565-74.056427a15.242555 15.242555 0 1 0-14.310316-26.921689l-139.317564 74.056427a15.242555 15.242555 0 0 0-8.089576 13.465201v105.926828a15.246911 15.246911 0 0 0 15.246912 15.246912h195.879249a15.246911 15.246911 0 1 0-0.004356-30.502536z" fill="#6E6E96" p-id="59486"></path><path d="M626.595787 942.463874h204.622264v-110.283089l-142.580403-63.209339" fill="#C4FBFF" p-id="59487"></path><path d="M626.595787 957.710785h204.622264a15.246911 15.246911 0 0 0 15.246912-15.246911v-110.283089a15.233843 15.233843 0 0 0-9.061022-13.935677l-142.576047-63.209339a15.242555 15.242555 0 1 0-12.363067 27.866998l142.576047 63.213695a15.246911 15.246911 0 0 1-9.069734-13.935677v110.278732a15.246911 15.246911 0 0 1 15.246911-15.246911h-204.622264a15.246911 15.246911 0 1 0 0 30.498179z" fill="#6E6E96" p-id="59488"></path><path d="M714.744716 587.864275c12.65058-134.656366 11.57894-250.602593 11.578941-250.602593s1.341728-19.211108-4.025185-44.904333C711.499302 240.578838 673.477861 162.488514 542.432835 162.488514c-124.941905 0-160.937685 78.090324-171.070346 129.868835-5.027125 25.684511-3.689753 44.899976-3.689753 44.899977s-0.53582 115.946227 12.062485 250.602593c17.446823 186.500221 60.0859 408.913453 164.213593 408.913453 109.446687 0.004356 153.275023-222.40452 170.795902-408.909097z" fill="#F0F0FF" p-id="59489"></path><path d="M449.792601 404.095429s8.738658 166.714086 104.633019 166.714087c95.898717 0 98.93503-179.599905 98.935031-179.599905l-203.56805 12.885818zM275.76871 897.890617H389.972433s-19.381003-68.062213-19.381003-102.598645l22.086241-11.735766 46.498724 143.665112H275.76871v-29.330701z" fill="#6E6E96" opacity=".15" p-id="59490"></path><path d="M677.838478 275.790491c-9.178641-44.015655-41.497737-110.400708-152.900385-110.400708-106.214342 0-136.812715 66.380696-145.429397 110.405064-4.273491 21.837933-3.136508 38.169554-3.136508 38.169554s-0.453051 98.564748 10.254637 213.034204c13.08185 139.83596 42.830752 303.378688 110.396352 340.049688-41.937719-55.47262-61.885036-186.700609-71.364259-301.100364-8.952115-108.043971-8.573121-201.076269-8.57312-201.076269s-0.949665-15.416806 2.626825-36.026273c7.200898-41.545656 32.789572-104.197393 121.596297-104.197393 93.14556 0 120.167444 62.651737 127.851887 104.197393 3.811728 20.609468 2.857707 36.03063 2.857707 36.03063s0.757989 93.032298-8.233332 201.076268c-2.491781 29.940578-5.728482 61.035565-9.949699 91.62087 7.919681-42.874315 13.561039-87.826566 17.577511-130.570194 10.76432-114.469455 9.853861-213.034203 9.853861-213.034204s1.128271-16.335977-3.428377-38.178266z" fill="#FFFFFF" opacity=".55" p-id="59491"></path><path d="M734.548276 289.586768c-10.79917-51.782868-48.820611-129.868836-179.856924-129.868836-124.946261 0-160.937685 78.085968-171.074703 129.868836-5.027125 25.684511-3.689753 44.899976-3.689752 44.899976s-0.53582 115.946227 12.062485 250.602593c17.446823 186.500221 60.0859 408.909097 164.213593 408.909097 109.437974 0 153.270667-222.408876 170.787189-408.909097 12.65058-134.656366 11.57894-250.602593 11.578941-250.602593s1.346084-19.206752-4.020829-44.899976z m-61.837116 247.683899c-14.01409 158.851036-49.064561 348.278665-136.58619 348.278664-83.278631 0-117.379437-189.427628-131.332539-348.278664-10.07603-114.691624-9.644761-213.448048-9.644761-213.448048s-1.067284-16.362114 2.949189-38.234898c8.102644-44.107137 36.89317-110.614165 136.821427-110.614165 104.794201 0 135.200898 66.511384 143.839363 110.614165 4.290917 21.87714 3.219276 38.239254 3.219276 38.239254s0.853827 98.752068-9.265765 213.443692z" fill="#6E6E96" opacity=".15" p-id="59492"></path><path d="M729.926284 589.288772c12.585236-133.889664 11.657353-251.003369 11.64864-252.175203 0.008713 0.405132-0.008713 0.805908-0.03485 1.202328 0.060988-0.871252 1.415785-21.637546-4.312698-49.081986-11.060545-53.028758-51.077153-141.996665-194.777116-141.996665-137.653473 0-175.640064 89.085526-186.034101 142.18834-5.349488 27.344247-3.994691 48.014702-3.938059 48.885955a13.879046 13.879046 0 0 1-0.034851-1.128272c-0.004356 1.167478-0.392063 118.241977 12.12783 252.096791 26.237757 280.512677 86.598101 422.740224 179.39516 422.740224 97.040057 0.004356 159.604669-142.22319 185.960045-422.731512z m-185.968758 392.242045c-72.274717 0-125.203281-140.310792-149.032025-395.086683-12.376136-132.299629-12.001497-247.958343-11.997141-249.112752 0-0.374638-0.008713-0.753633-0.03485-1.132628-0.008713-0.1394-1.089065-17.747405 3.445802-40.913998C396.833543 241.659191 432.43726 177.735425 542.445904 177.735425c116.015928 0 153.736787 64.019603 164.936732 117.727938 4.809312 23.062043 3.746384 40.587278 3.733315 40.761529a14.240615 14.240615 0 0 1-0.026137 1.163121c0.008713 1.154409 0.910458 116.782629-11.517953 249.038696-23.942007 254.78896-79.205527 395.104108-155.614335 395.104108z" fill="#6E6E96" p-id="59493"></path><path d="M638.283633 382.401252c0 75.781506-39.0016 137.222203-87.125208 137.222204-48.114896 0-87.125208-61.440697-87.125209-137.222204 0-75.785863 39.005956-128.509682 87.125209-128.509682s87.125208 52.72382 87.125208 128.509682z" fill="#9FD6ED" p-id="59494"></path><path d="M601.643127 358.210938c0 53.812885-27.87571 97.440833-62.272743 97.440833-34.392676 0-62.272743-43.632304-62.272743-97.440833 0-53.817241 27.880067-91.250587 62.272743-91.250587 34.397032 0 62.272743 37.437702 62.272743 91.250587z" fill="#B8E9FF" p-id="59495"></path><path d="M623.036722 382.401252c0 66.119321-32.915904 121.975292-71.878297 121.975292-38.958037 0-71.878297-55.855971-71.878297-121.975292 0-33.033523 8.089576-62.852125 22.783242-83.962563 13.15155-18.893101 30.585304-29.300208 49.095055-29.300208 18.514107 0 35.947861 10.407106 49.099411 29.300208 14.684954 21.110438 22.778886 50.929041 22.778886 83.962563z m-71.878297-143.756594c-28.777456 0-55.097982 15.05088-74.121771 42.373346-18.217881 26.181125-28.250349 62.181261-28.250349 101.383248 0 85.495967 44.96532 152.469115 102.37212 152.469115 57.411156 0 102.37212-66.973148 102.37212-152.469115 0-39.201988-10.032468-75.20648-28.245993-101.383248-19.023789-27.322465-45.348671-42.373345-74.126127-42.373346z" fill="#6E6E96" p-id="59496"></path><path d="M566.396624 333.131947c0 19.751285-10.245925 35.773611-22.870367 35.773611s-22.866011-16.022326-22.866011-35.773611c0-19.759997 10.237212-33.499643 22.866011-33.499643 12.624443 0 22.870367 13.744002 22.870367 33.499643z" fill="#D9FAFF" p-id="59497"></path><path d="M669.653065 890.972875h110.936528v-64.559779l35.381547 15.682538v85.121328h-162.762958z" fill="#6E6E96" opacity=".15" p-id="59498"></path><path d="M275.76871 845.702617l97.29272-23.406187-2.47-27.004458zM693.651703 815.548583l86.93789 10.864513-80.882688-35.860736z" fill="#FFFFFF" opacity=".52" p-id="59499"></path><path d="M251.665521 517.210087V291.268284h-82.768948v225.941803h-40.591635c-42.612939 0-77.484804-34.867508-77.484804-77.484804v51.403873c0 42.612939 34.867508 77.484804 77.484804 77.484804h252.022734l-1.454991-51.403873H251.665521z m713.490113-0.004356h-44.804138V291.272641h-84.947078v225.93309h-114.286493l-3.258482-239.158697h-0.697002l3.955484 290.56257h244.042065c42.612939 0 77.484804-34.867508 77.484805-77.484804v-51.403873c-0.008713 42.621652-34.880577 77.484804-77.489161 77.484804z" fill="#6E6E96" opacity=".15" p-id="59500"></path><path d="M120.977708 701.497328h21.781302v108.906511h-21.781302z" fill="#6E6E96" opacity=".66" p-id="59501"></path><path d="M926.885886 640.509682h21.781303v74.056428h-21.781303z" fill="#6E6E96" p-id="59502"></path><path d="M1022.723616 810.403839h21.781302v126.331552h-21.781302z" fill="#6E6E96" opacity=".36" p-id="59503"></path></svg>