<svg xmlns="http://www.w3.org/2000/svg" version="1.1" xmlns:xlink="http://www.w3.org/1999/xlink" xmlns:svgjs="http://svgjs.dev/svgjs" width="1000" height="169" viewBox="0 0 1000 169"><g transform="matrix(1,0,0,1,-0.6060606060606233,0.621576386731391)"><svg viewBox="0 0 396 67" data-background-color="#ffb8b1" preserveAspectRatio="xMidYMid meet" height="169" width="1000" xmlns="http://www.w3.org/2000/svg" xmlns:xlink="http://www.w3.org/1999/xlink"><g id="tight-bounds" transform="matrix(1,0,0,1,0.2400000000000091,-0.24642376677383027)"><svg viewBox="0 0 395.52 67.49284754139512" height="67.49284754139512" width="395.52"><g><svg viewBox="0 0 523.2356481484202 89.28667027888447" height="67.49284754139512" width="395.52"><g transform="matrix(1,0,0,1,127.71564814842017,12.339908844621519)"><svg viewBox="0 0 395.52 64.60685258964143" height="64.60685258964143" width="395.52"><g id="textblocktransform"><svg viewBox="0 0 395.52 64.60685258964143" height="64.60685258964143" width="395.52" id="textblock"><g><svg viewBox="0 0 395.52 64.60685258964143" height="64.60685258964143" width="395.52"><g transform="matrix(1,0,0,1,0,0)"><svg width="395.52" viewBox="1.5 -35.099998474121094 288.6300048828125 47.14999771118164" height="64.60685258964143" data-palette-color="#993441"><path d="M11.8 0.85L11.8 0.85Q9.05 0.85 6.23 0.18 3.4-0.5 1.5-1.6L1.5-1.6 1.8-8.55 3.25-8.55 4.8-5.1Q5.5-3.65 6.25-2.7 7-1.75 8.25-1.25L8.25-1.25Q9.1-0.9 9.88-0.78 10.65-0.65 11.6-0.65L11.6-0.65Q14.65-0.65 16.43-2.23 18.2-3.8 18.2-6.4L18.2-6.4Q18.2-8.75 16.98-10.1 15.75-11.45 13.05-12.7L13.05-12.7 11-13.6Q6.8-15.45 4.38-17.9 1.95-20.35 1.95-24.4L1.95-24.4Q1.95-27.4 3.48-29.53 5-31.65 7.7-32.8 10.4-33.95 14-33.95L14-33.95Q16.65-33.95 18.98-33.25 21.3-32.55 23.05-31.35L23.05-31.35 22.7-25.15 21.25-25.15 19.4-28.9Q18.6-30.55 17.88-31.28 17.15-32 16.1-32.2L16.1-32.2Q15.5-32.3 15.08-32.35 14.65-32.4 13.95-32.4L13.95-32.4Q11.5-32.4 9.73-30.98 7.95-29.55 7.95-27.05L7.95-27.05Q7.95-24.65 9.3-23.15 10.65-21.65 13.2-20.5L13.2-20.5 15.45-19.55Q20.3-17.45 22.4-15.08 24.5-12.7 24.5-9L24.5-9Q24.5-4.6 21.18-1.88 17.85 0.85 11.8 0.85ZM38.7 0L27.1 0 27.1-0.95 27.85-1.2Q29.55-1.7 29.55-3.65L29.55-3.65 29.55-29.55Q29.55-30.55 29.15-31.08 28.75-31.6 27.75-31.85L27.75-31.85 27.1-32.05 27.1-33 35.85-35.1 36.5-34.65 36.3-27.6 36.3-3.65Q36.3-1.65 38-1.15L38-1.15 38.7-0.95 38.7 0ZM53.9 0L45.4 0 36.35-12.5 45.2-20.7Q45.85-21.25 45.95-21.93 46.05-22.6 45.1-22.85L45.1-22.85 44.3-23.05 44.3-24 52.1-24 52.1-23.05 50.65-22.7Q49.55-22.4 48.85-21.88 48.15-21.35 47.2-20.5L47.2-20.5 41.7-15.35 50.2-3.7Q51-2.65 51.65-2.08 52.3-1.5 53.4-1.1L53.4-1.1 53.9-0.95 53.9 0ZM60 12.05L60 12.05Q58 12.05 56.84 11.1 55.7 10.15 55.7 8.6L55.7 8.6Q55.7 7.2 56.67 6.38 57.65 5.55 58.84 5.55L58.84 5.55Q60.09 5.55 60.9 6 61.7 6.45 62.3 7.3L62.3 7.3 62.59 7.7Q63.75 9.1 64.75 7.65L64.75 7.65Q65.4 6.8 66.02 5.55 66.65 4.3 67.4 2.25L67.4 2.25 57.9-20.45Q57.55-21.4 57.09-21.93 56.65-22.45 55.75-22.8L55.75-22.8 54.9-23.1 54.9-24 67.25-24 67.25-23.1 66.2-22.8Q65.09-22.45 65.02-21.73 64.95-21 65.34-19.85L65.34-19.85 70.45-6.55 75.34-19.95Q75.75-21.05 75.65-21.8 75.55-22.55 74.4-22.8L74.4-22.8 73.3-23.1 73.3-24 80.75-24 80.75-23.1 79.65-22.75Q78.55-22.45 78.07-21.88 77.59-21.3 77.2-20.2L77.2-20.2 69.2 1.3Q67.2 6.8 65.12 9.43 63.05 12.05 60 12.05ZM96.69 0.2L93.24 0.2 84.59-29.25Q84.24-30.35 83.79-30.9 83.34-31.45 82.29-31.8L82.29-31.8 81.69-32 81.69-33.05 94.59-33.05 94.59-32 93.54-31.65Q92.39-31.3 92.07-30.65 91.74-30 92.04-28.85L92.04-28.85 97.49-8.35 103.44-26.1 102.54-29Q102.19-30.05 101.84-30.63 101.49-31.2 100.69-31.55L100.69-31.55 99.59-32 99.59-33.05 111.84-33.05 111.84-32 110.44-31.55Q109.44-31.2 109.29-30.55 109.14-29.9 109.49-28.8L109.49-28.8 115.79-8.05 121.59-28.5Q121.94-29.65 121.79-30.5 121.64-31.35 120.49-31.7L120.49-31.7 119.49-32 119.49-33.05 126.89-33.05 126.89-32 125.64-31.6Q124.64-31.25 124.22-30.58 123.79-29.9 123.49-28.8L123.49-28.8 115.29 0.2 111.84 0.2 104.44-23.1 96.69 0.2ZM134.24-27.5L134.24-27.5Q132.59-27.5 131.44-28.55 130.29-29.6 130.29-31.2L130.29-31.2Q130.29-32.85 131.44-33.88 132.59-34.9 134.24-34.9L134.24-34.9Q135.89-34.9 137.04-33.88 138.19-32.85 138.19-31.2L138.19-31.2Q138.19-29.6 137.04-28.55 135.89-27.5 134.24-27.5ZM139.94 0L128.49 0 128.49-0.95 129.24-1.15Q130.24-1.45 130.59-2.05 130.94-2.65 130.99-3.65L130.99-3.65 130.99-12.85Q130.99-14.4 130.99-15.73 130.99-17.05 130.94-18.45L130.94-18.45Q130.94-19.45 130.57-20.03 130.19-20.6 129.19-20.8L129.19-20.8 128.49-20.95 128.49-21.85 137.24-24.75 137.84-24.2 137.69-17.1 137.69-3.6Q137.69-2.6 138.07-2 138.44-1.4 139.39-1.1L139.39-1.1 139.94-0.95 139.94 0ZM153.59 0L142.14 0 142.14-0.95 142.94-1.15Q144.59-1.65 144.59-3.6L144.59-3.6 144.59-18.35Q144.54-19.4 144.24-19.98 143.94-20.55 142.94-20.75L142.94-20.75 142.14-20.95 142.14-21.85 150.24-24.75 150.84-24.2 151.19-21.1Q152.99-22.7 155.21-23.73 157.44-24.75 159.59-24.75L159.59-24.75Q162.89-24.75 164.66-22.95 166.44-21.15 166.44-17.45L166.44-17.45 166.44-3.55Q166.44-1.6 168.24-1.1L168.24-1.1 168.79-0.95 168.79 0 157.29 0 157.29-0.95 158.04-1.15Q159.69-1.7 159.69-3.6L159.69-3.6 159.69-18.45Q159.69-20.2 158.94-21 158.19-21.8 156.44-21.8L156.44-21.8Q153.99-21.8 151.34-19.65L151.34-19.65 151.34-3.55Q151.34-1.6 153.09-1.1L153.09-1.1 153.59-0.95 153.59 0ZM181.64-8.55L181.64-8.55Q178.34-8.55 175.99-9.65L175.99-9.65 175.99-7.85Q175.99-6.35 177.49-6.05L177.49-6.05 186.39-4.4Q188.94-3.9 190.89-3.18 192.84-2.45 193.94-1.13 195.04 0.2 195.04 2.45L195.04 2.45Q195.04 4.85 193.46 6.93 191.89 9 188.81 10.28 185.74 11.55 181.14 11.55L181.14 11.55Q177.19 11.55 174.86 10.73 172.54 9.9 171.54 8.6 170.54 7.3 170.54 5.8L170.54 5.8Q170.54 4 171.76 2.2 172.99 0.4 174.94-0.8L174.94-0.8Q171.89-1.95 171.89-4.45L171.89-4.45Q171.89-5.4 172.34-6.2 172.79-7 173.44-7.8L173.44-7.8 175.24-10.05Q171.64-12.15 171.64-16.6L171.64-16.6Q171.64-20.25 174.21-22.5 176.79-24.75 181.64-24.75L181.64-24.75Q186.49-24.75 189.14-22.5L189.14-22.5Q190.74-22.75 192.14-23.3 193.54-23.85 194.74-24.8L194.74-24.8 195.44-24.3 195.44-21.5 190.04-21.5Q191.64-19.5 191.64-16.6L191.64-16.6Q191.64-13.05 189.06-10.8 186.49-8.55 181.64-8.55ZM181.54-9.9L181.54-9.9Q183.64-9.9 184.61-11.53 185.59-13.15 185.59-16.75L185.59-16.75Q185.59-20.3 184.64-21.85 183.69-23.4 181.69-23.4L181.69-23.4Q179.69-23.4 178.71-21.83 177.74-20.25 177.74-16.65L177.74-16.65Q177.74-13.05 178.64-11.48 179.54-9.9 181.54-9.9ZM174.44 4.35L174.44 4.35Q174.44 7.1 176.19 8.47 177.94 9.85 181.74 9.85L181.74 9.85Q185.94 9.85 187.96 8.47 189.99 7.1 189.99 4.85L189.99 4.85Q189.99 3.45 188.96 2.65 187.94 1.85 185.54 1.4L185.54 1.4 176.59-0.35Q176.39-0.4 176.19-0.45L176.19-0.45Q175.44 0.55 174.94 1.85 174.44 3.15 174.44 4.35ZM219.48 0L204.03 0 204.03-1.05 206.03-1.45Q208.13-1.9 208.13-3.9L208.13-3.9 208.13-17.55Q208.13-21.05 208.13-24.55 208.13-28.05 208.08-31.55L208.08-31.55 204.13-31.55Q202.53-31.55 201.78-30.7 201.03-29.85 200.28-28.3L200.28-28.3 198.53-24.6 197.13-24.6 197.38-33.05 226.08-33.05 226.33-24.6 224.93-24.6 223.18-28.3Q222.43-29.85 221.68-30.7 220.93-31.55 219.33-31.55L219.33-31.55 215.33-31.55 215.33-3.9Q215.33-1.85 217.43-1.45L217.43-1.45 219.48-1.05 219.48 0ZM240.88 0L228.38 0 228.38-0.95 229.13-1.2Q230.13-1.45 230.51-2.05 230.88-2.65 230.88-3.65L230.88-3.65 230.88-18.3Q230.83-19.4 230.48-19.98 230.13-20.55 229.13-20.75L229.13-20.75 228.38-20.95 228.38-21.85 236.53-24.75 237.13-24.2 237.58-19.8 237.58-19.45Q238.33-20.85 239.48-22.05 240.63-23.25 241.98-24 243.33-24.75 244.68-24.75L244.68-24.75Q246.58-24.75 247.53-23.75 248.48-22.75 248.48-21.2L248.48-21.2Q248.48-19.5 247.53-18.63 246.58-17.75 245.23-17.75L245.23-17.75Q243.23-17.75 241.78-19.55L241.78-19.55 241.68-19.65Q241.18-20.25 240.56-20.33 239.93-20.4 239.33-19.7L239.33-19.7Q238.83-19.2 238.41-18.53 237.98-17.85 237.63-16.95L237.63-16.95 237.63-3.85Q237.63-2.9 238.03-2.27 238.43-1.65 239.38-1.4L239.38-1.4 240.88-0.95 240.88 0ZM255.93-27.5L255.93-27.5Q254.28-27.5 253.13-28.55 251.98-29.6 251.98-31.2L251.98-31.2Q251.98-32.85 253.13-33.88 254.28-34.9 255.93-34.9L255.93-34.9Q257.58-34.9 258.73-33.88 259.88-32.85 259.88-31.2L259.88-31.2Q259.88-29.6 258.73-28.55 257.58-27.5 255.93-27.5ZM261.63 0L250.18 0 250.18-0.95 250.93-1.15Q251.93-1.45 252.28-2.05 252.63-2.65 252.68-3.65L252.68-3.65 252.68-12.85Q252.68-14.4 252.68-15.73 252.68-17.05 252.63-18.45L252.63-18.45Q252.63-19.45 252.25-20.03 251.88-20.6 250.88-20.8L250.88-20.8 250.18-20.95 250.18-21.85 258.93-24.75 259.53-24.2 259.38-17.1 259.38-3.6Q259.38-2.6 259.75-2 260.13-1.4 261.08-1.1L261.08-1.1 261.63-0.95 261.63 0ZM275.63 11.55L263.83 11.55 263.83 10.6 264.48 10.4Q265.48 10.15 265.88 9.58 266.28 9 266.28 7.95L266.28 7.95Q266.28 5.9 266.3 4.08 266.33 2.25 266.33 0.55L266.33 0.55 266.33-13.2Q266.33-14.75 266.33-15.88 266.33-17 266.28-18.4L266.28-18.4Q266.28-19.45 265.93-20.03 265.58-20.6 264.58-20.8L264.58-20.8 263.83-20.95 263.83-21.85 271.88-24.75 272.48-24.25 272.93-22.4Q276.38-24.75 280.73-24.75L280.73-24.75Q284.98-24.75 287.55-21.55 290.13-18.35 290.13-12.1L290.13-12.1Q290.13-6.05 287.3-2.68 284.48 0.7 279.63 0.7L279.63 0.7Q277.68 0.7 275.95 0.35 274.23 0 272.88-0.7L272.88-0.7 272.88 0.8Q272.88 2.3 272.9 4.05 272.93 5.8 272.93 7.85L272.93 7.85Q272.93 9.85 274.68 10.35L274.68 10.35 275.63 10.6 275.63 11.55ZM277.28-1.3L277.28-1.3Q279.93-1.3 281.45-3.68 282.98-6.05 282.98-11.9L282.98-11.9Q282.98-17.7 281.53-20.03 280.08-22.35 277.43-22.35L277.43-22.35Q276.48-22.35 275.38-22.05 274.28-21.75 273.03-21.05L273.03-21.05 273.03-2.15Q275.03-1.3 277.28-1.3Z" opacity="1" transform="matrix(1,0,0,1,0,0)" fill="#993441" class="undefined-text-0" data-fill-palette-color="primary" id="text-0"></path></svg></g></svg></g></svg></g></svg></g><g><svg viewBox="0 0 112.46352081646798 89.28667027888447" height="89.28667027888447" width="112.46352081646798"><g><svg xmlns="http://www.w3.org/2000/svg" xmlns:xlink="http://www.w3.org/1999/xlink" version="1.1" x="0" y="0" viewBox="2.426082134246826 12.22952938079834 95.14930725097656 75.5406265258789" enable-background="new 0 0 100 100" xml:space="preserve" height="89.28667027888447" width="112.46352081646798" class="icon-icon-0" data-fill-palette-color="accent" id="icon-0"><g fill="#993441" data-fill-palette-color="accent"><path d="M76.005 47.565c-4.334-15.368 12.453-20.312 12.453-20.312 6.719-2.449 2.379-6.222 2.379-6.222-16.553-14.183-37.822-4.543-37.822-4.543-2.498 0.851-4.814 1.218-6.907 1.263-0.353 0.006-0.696 0.006-1.032-0.003-1.67 0.001-3.145-0.159-4.664-0.768-3.811-1.751-7.393-4.405-11.732-4.707-4.5-0.312-8.25 1.093-11.016 3.01-2.547 1.766-4.664 4.945-6.484 7.396-1.723 1.984-3.928 2.67-6.023 4.034-0.48 0.283-2.188 1.219-2.598 1.448-1.244 0.679 6.629 5.245 7.607 5.898 1.805 1.203 2.646 2.636 3.014 3.12 3.771 4.958 2.312 14.716 2.291 15.208-0.369 9.564-0.826 16.233-0.365 20.921 0.812 8.25 3.488 21.454 11.596 9.974 2.543-3.603 4.625-6.207 8.354-9.311 1.719-1.431 4.334-2.577 6.666-2 6.525 1.613 15.127 0.49 15.501 0.416C83.803 67.336 76.005 47.565 76.005 47.565zM20.046 28.334c-1.834 0.345-2.756-1.676-2.678-3.276 0.215-1.113 1.101-1.738 2.334-1.832 0.828 0 1.139 0.196 1.529 0.455 0.576 0.315 1.035 0.828 1.234 1.476C23.11 26.774 21.554 28.087 20.046 28.334z" fill="#993441" data-fill-palette-color="accent"></path><path d="M97.198 58.583c-3.111-4.692-8.789-6.88-14-5.116-0.328 0.089-0.621 0.198-0.869 0.337-0.5 0.272-0.826 0.646-0.931 1.113-0.214 0.929 0.502 2.062 1.823 3.145 0.331 0.271 0.701 0.535 1.104 0.796 3.217 1.825 6.655 2.911 10.312 2.873 0.396-0.032 0.771-0.095 1.098-0.182 0.993-0.256 1.646-0.74 1.807-1.442C97.641 59.643 97.518 59.123 97.198 58.583z" fill="#993441" data-fill-palette-color="accent"></path><path d="M84.065 77.271c-0.242-0.402-0.503-0.786-0.777-1.164-1.361-1.779-2.756-2.854-4.451-4.35-0.401-0.356-1.236-0.727-1.754-0.872-2.071-0.569-4.683-0.229-5.678 1.373-0.244 0.407-0.395 0.892-0.404 1.456 0.642 5.603 6.688 8.031 11.103 9.512 1.808 0.444 2.662-0.008 3.212-0.662 0.467-0.646 0.48-0.92 0.321-1.629C85.304 79.535 84.792 78.461 84.065 77.271z" fill="#993441" data-fill-palette-color="accent"></path></g></svg></g></svg></g></svg></g><defs></defs></svg><rect width="395.52" height="67.49284754139512" fill="none" stroke="none" visibility="hidden"></rect></g></svg></g></svg>